<?xml version="1.0" standalone="no"?><svg xmlns="http://www.w3.org/2000/svg" viewBox="0 0 1440 320"><path fill=" #7FD3D1" fill-opacity="0.1" d="M0,128L26.7,149.3C53.3,171,107,213,160,208C213.3,203,267,149,320,133.3C373.3,117,427,139,480,154.7C533.3,171,587,181,640,197.3C693.3,213,747,235,800,229.3C853.3,224,907,192,960,186.7C1013.3,181,1067,203,1120,202.7C1173.3,203,1227,181,1280,165.3C1333.3,149,1387,139,1413,133.3L1440,128L1440,0L1413.3,0C1386.7,0,1333,0,1280,0C1226.7,0,1173,0,1120,0C1066.7,0,1013,0,960,0C906.7,0,853,0,800,0C746.7,0,693,0,640,0C586.7,0,533,0,480,0C426.7,0,373,0,320,0C266.7,0,213,0,160,0C106.7,0,53,0,27,0L0,0Z"></path></svg>